<?xml version="1.0" encoding="utf-8"?>
<!-- Generator: Adobe Illustrator 25.4.1, SVG Export Plug-In . SVG Version: 6.00 Build 0)  -->
<svg version="1.1" id="Layer_1" xmlns="http://www.w3.org/2000/svg" xmlns:xlink="http://www.w3.org/1999/xlink" x="0px" y="0px"
	 viewBox="0 0 288 288" style="enable-background:new 0 0 288 288;" xml:space="preserve">
<style type="text/css">
	.st0{clip-path:url(#SVGID_00000145041752472058302150000006897979798619324088_);}
	.st1{clip-path:url(#SVGID_00000145041752472058302150000006897979798619324088_);fill-rule:evenodd;clip-rule:evenodd;}
</style>
<g>
	<g>
		<defs>
			<rect id="SVGID_1_" x="6" y="45" width="274" height="223"/>
		</defs>
		<clipPath id="SVGID_00000167377902994526848260000009295978231586455219_">
			<use xlink:href="#SVGID_1_"  style="overflow:visible;"/>
		</clipPath>
		<path style="clip-path:url(#SVGID_00000167377902994526848260000009295978231586455219_);" d="M99.6,103.8
			c-7.9-5.9-17.7-9.4-27.6-9.7v20.5c5.2,0.3,10.4,2.1,14.8,5.4c3.3,2.5,5.9,5.6,7.6,9c1.8-7.7,5.5-14.8,10.4-20.7
			C103.2,106.8,101.5,105.2,99.6,103.8"/>
		<path style="clip-path:url(#SVGID_00000167377902994526848260000009295978231586455219_);" d="M267,146.7
			c-1.5,11.8-7.8,23.1-18.2,30.9c-4,3-8.3,5.3-12.8,6.9c-4.5,1.6-9.1,2.5-13.8,2.7c-0.9,0-1.7,0-2.6,0c-13.3,0-25.3-5.3-33.9-13.8
			c4.9-5.7,8.6-12.5,10.6-19.9c0.6,1.1,1.3,2.1,2.1,3.1c4.5,5.7,11,9.1,17.8,10c6.8,0.9,13.9-0.8,19.8-5.2
			c5.9-4.4,9.3-10.7,10.2-17.3c0.9-6.6-0.8-13.6-5.3-19.3l0,0c-4.5-5.7-11-9.1-17.8-9.9c-6.8-0.9-13.9,0.8-19.8,5.2
			c-5.9,4.4-9.3,10.7-10.2,17.4c-0.1,1.1-0.2,2.3-0.2,3.4c0,2-0.1,4-0.4,6c-1.6,11.9-7.8,23.1-18.2,31c-4,3-8.3,5.3-12.8,6.9
			c-4.5,1.6-9.1,2.5-13.8,2.8c-0.7,0-1.4,0-2.2,0h-0.4v0c-10.2,0-20.5-3.1-29.1-9.7c-1.7-1.3-3.3-2.7-4.8-4.2
			c4.9-5.7,8.6-12.5,10.6-20c1.7,3,4.1,5.7,7.1,8c4.9,3.7,10.6,5.4,16.4,5.4v0h0.4c5.6,0,11.2-1.9,16-5.4
			c5.9-4.4,9.3-10.7,10.2-17.4c0.2-1.1,0.2-2.2,0.2-3.4c0-2,0.1-4,0.4-6.1c1.6-11.8,7.8-23.1,18.3-31c10.4-7.8,23.2-10.8,35.3-9.3
			c12.1,1.5,23.6,7.6,31.6,17.8l0,0C265.6,122.4,268.6,134.9,267,146.7"/>
		
			<path style="clip-path:url(#SVGID_00000167377902994526848260000009295978231586455219_);fill-rule:evenodd;clip-rule:evenodd;" d="
			M179.1,107.9c-4.9,5.7-8.6,12.5-10.6,20c-0.6-1.1-1.4-2.2-2.2-3.2l0,0c-4.5-5.7-11-9.1-17.8-10c-1.1-0.1-2.2-0.2-3.3-0.2h-0.1v0
			c-1.2,0-2.3,0-3.5,0.2c-6.8,0.9-13.3,4.3-17.8,10v0h0c-3.7,4.7-5.5,10.4-5.5,16h-0.1c0,10-3.2,20.1-9.9,28.6l0,0
			c-8.1,10.2-19.6,16.3-31.6,17.8c-12.1,1.5-24.9-1.4-35.3-9.3c-10.4-7.9-16.7-19.1-18.2-31c-0.3-2-0.4-4-0.4-6.1h21
			c0,1.2,0.1,2.3,0.2,3.4c0.9,6.7,4.4,13,10.2,17.3c5.9,4.4,13,6.1,19.8,5.2c6.8-0.9,13.3-4.3,17.8-9.9l0,0
			c3.8-4.8,5.6-10.4,5.6-16.1h0.1c0-8.7,2.5-17.6,7.7-25.4H105l41.4-54.8h27.4l-26.1,33.6c1.2,0.1,2.4,0.2,3.6,0.3
			C161.6,95.8,171.4,100.3,179.1,107.9"/>
		
			<polygon style="clip-path:url(#SVGID_00000167377902994526848260000009295978231586455219_);fill-rule:evenodd;clip-rule:evenodd;" points="
			105.4,81.2 36.9,81.2 52.4,60.6 121,60.6 		"/>
		<path style="clip-path:url(#SVGID_00000167377902994526848260000009295978231586455219_);" d="M243.9,210.2v4.2h-21.1v-4.2h14.6
			c-0.6,0.4-1,1-1,1.8c0,1.2,1,2.2,2.2,2.2c1.2,0,2.2-1,2.2-2.2c0-0.7-0.4-1.4-1-1.8H243.9z"/>
		<path style="clip-path:url(#SVGID_00000167377902994526848260000009295978231586455219_);" d="M243.9,221.7v4.2H231
			c0.8-0.3,1.3-1.1,1.3-2c0-1.2-1-2.2-2.2-2.2c-1.2,0-2.2,1-2.2,2.2c0,0.9,0.5,1.6,1.3,2h-6.3v-4.2H243.9z"/>
		<path style="clip-path:url(#SVGID_00000167377902994526848260000009295978231586455219_);" d="M243.9,232.3v4.2h-4.3
			c0.8-0.3,1.3-1.1,1.3-2c0-1.2-1-2.2-2.2-2.2c-1.2,0-2.2,1-2.2,2.2c0,0.9,0.5,1.6,1.3,2h-14.9v-4.2H243.9z"/>
		<path style="clip-path:url(#SVGID_00000167377902994526848260000009295978231586455219_);" d="M241.3,232.3
			c-0.6-0.7-1.5-1.1-2.6-1.1c-1,0-2,0.4-2.6,1.1c-0.5,0.6-0.9,1.4-0.9,2.2c0,0.7,0.2,1.4,0.7,2c0.6,0.9,1.6,1.4,2.8,1.4
			c1.2,0,2.2-0.6,2.8-1.4c0.4-0.5,0.6-1.2,0.6-2C242.2,233.7,241.8,232.9,241.3,232.3 M238.7,236.7c-0.3,0-0.7-0.1-0.9-0.2
			c-0.8-0.3-1.3-1.1-1.3-2c0-1.2,1-2.2,2.2-2.2c1.2,0,2.2,1,2.2,2.2c0,0.9-0.5,1.6-1.3,2C239.4,236.6,239.1,236.7,238.7,236.7z"/>
		<path style="clip-path:url(#SVGID_00000167377902994526848260000009295978231586455219_);" d="M232.7,221.7
			c-0.6-0.7-1.5-1.1-2.6-1.1c-1,0-2,0.4-2.6,1.1c-0.5,0.6-0.9,1.4-0.9,2.2c0,0.7,0.2,1.4,0.6,2c0.6,0.9,1.7,1.4,2.8,1.4
			c1.2,0,2.2-0.6,2.8-1.4c0.4-0.5,0.6-1.2,0.6-2C233.5,223.1,233.2,222.3,232.7,221.7 M230.1,226.1c-0.3,0-0.7-0.1-0.9-0.2
			c-0.7-0.3-1.3-1.1-1.3-2c0-1.2,1-2.2,2.2-2.2c1.2,0,2.2,1,2.2,2.2c0,0.9-0.5,1.6-1.3,2C230.8,226,230.4,226.1,230.1,226.1z"/>
		<path style="clip-path:url(#SVGID_00000167377902994526848260000009295978231586455219_);" d="M41,230.8l1.7,3.6
			c-2.3,2.1-5.6,3.2-8.6,3.2c-7.9,0-14.3-6.2-14.3-13.8c0-7.6,6.4-13.8,14.3-13.8c3,0,6.3,1,8.6,3.1l-1.7,3.6
			c-1.9-1.9-4.1-2.9-7.2-2.9c-5.6,0-10.2,4.4-10.2,9.9c0,5.5,4.5,9.9,10.2,9.9C36.9,233.7,39.1,232.7,41,230.8"/>
		<path style="clip-path:url(#SVGID_00000167377902994526848260000009295978231586455219_);" d="M68.9,210.4v15
			c0,7.1-3.3,12.2-10.5,12.2c-7.4,0-10.5-5.1-10.5-12.2v-15h3.9v16.3c0,4.2,2.4,7,6.6,7c4.1,0,6.6-2.9,6.6-7v-16.3H68.9z"/>
		<path style="clip-path:url(#SVGID_00000167377902994526848260000009295978231586455219_);" d="M95.4,229.4c0,4.7-4,8.2-10.4,8.2
			c-6.6,0-10.2-3.9-10.6-4.4l2-3.4c2.3,2.5,5.4,4,8.7,4c4.1,0,6.4-1.6,6.4-4.2c0-2.2-2.5-3.5-6.3-4.1c-7.7-1.3-9.8-4-9.8-7.6
			c0-4.4,3.5-7.8,9.9-7.8c1.1,0,5.5,0.1,8.9,3.2l-1.9,3.5c-1.4-1.4-3.6-2.8-7.1-2.8c-3.8,0-5.9,1.4-5.9,3.8c0,2.1,1.9,3,6.2,3.9
			C92,222.8,95.4,224.9,95.4,229.4"/>
		<path style="clip-path:url(#SVGID_00000167377902994526848260000009295978231586455219_);" d="M98.6,210.4h18.4v3.8H98.6V210.4z
			 M105.8,216.3h3.9v20.9h-3.9V216.3z"/>
		<path style="clip-path:url(#SVGID_00000167377902994526848260000009295978231586455219_);" d="M131.8,210.1v3.9
			c-5.1,0.5-9,4.7-9,9.9c0,5.2,3.9,9.3,9,9.9v3.9c-7.3-0.6-13-6.5-13-13.7C118.8,216.6,124.5,210.7,131.8,210.1 M147,223.8
			c0,7.2-5.7,13.2-13,13.7v-3.9c5.1-0.5,9-4.7,9-9.9c0-5.2-3.9-9.3-9-9.9v-3.9C141.3,210.7,147,216.6,147,223.8z"/>
		<path style="clip-path:url(#SVGID_00000167377902994526848260000009295978231586455219_);" d="M154.3,219.4l3,5.6l-2,12.3h-4
			L154.3,219.4z M178.5,215.8l-11.8,22.1l-11.8-22.1l1-6.1l10.7,20.3l10.7-20.3L178.5,215.8z M182.1,237.3h-4l-2-12.3l3-5.6
			L182.1,237.3z"/>
		
			<rect x="187.8" y="210.4" style="clip-path:url(#SVGID_00000167377902994526848260000009295978231586455219_);" width="3.9" height="26.9"/>
		<path style="clip-path:url(#SVGID_00000167377902994526848260000009295978231586455219_);" d="M203.7,233.4h14.2v3.8h-21
			l17.4-26.9h4.2L203.7,233.4z M209.9,214.2h-12.4v-3.8h14.9L209.9,214.2z"/>
		<path style="clip-path:url(#SVGID_00000167377902994526848260000009295978231586455219_);" d="M270.4,237.3h-4.6l-6.8-9.3h-4.3
			v9.3h-3.9v-13.1h9.8c2.9,0,5.3-1.4,5.3-4.9c0-3.5-2.3-5-5.2-5h-9.9v-3.8h8.5c7.2,0,10.5,3.5,10.5,8.6c0,4.2-2.3,7.6-6.4,8.6
			L270.4,237.3z"/>
		<path style="clip-path:url(#SVGID_00000167377902994526848260000009295978231586455219_);" d="M241.6,210.2
			c-0.6-0.9-1.7-1.6-2.9-1.6c-1.2,0-2.3,0.6-2.9,1.6c-0.3,0.5-0.5,1.1-0.5,1.8c0,0.9,0.4,1.8,1,2.4c0.6,0.6,1.5,1,2.4,1
			c0.9,0,1.8-0.4,2.4-1c0.6-0.6,1-1.5,1-2.4C242.2,211.3,242,210.7,241.6,210.2 M238.7,209.8c0.5,0,0.9,0.1,1.2,0.4
			c0.6,0.4,1,1,1,1.8c0,1.2-1,2.2-2.2,2.2c-1.2,0-2.2-1-2.2-2.2c0-0.7,0.4-1.4,1-1.8C237.8,209.9,238.3,209.8,238.7,209.8z"/>
	</g>
</g>
</svg>
